<?xml version="1.0" encoding="UTF-8"?>
<svg width="32px" height="99px" viewBox="0 0 32 99" version="1.1" xmlns="http://www.w3.org/2000/svg" xmlns:xlink="http://www.w3.org/1999/xlink">
    <title>logo copy</title>
    <g id="Page-1" stroke="none" stroke-width="1" fill="none" fill-rule="evenodd">
        <g id="logo-copy" transform="translate(0.571500, 0.787072)" fill="#FFFFFF" fill-rule="nonzero">
            <path d="M30.4019656,73.2527689 C31.0362111,69.0187596 27.8082301,66.7426565 23.3943992,65.22426 L24.826181,59.4887586 L21.3303632,58.6186886 L19.936417,64.2030464 C19.0174083,63.9743423 18.0735076,63.758565 17.1355809,63.5447763 L18.5394839,57.9236269 L15.0456574,57.0535569 L13.6128799,62.7870697 C12.8521835,62.61405 12.1054267,62.4430191 11.3805747,62.2630389 L11.3845574,62.2451403 L6.56349504,61.0429522 L5.63353382,64.7718236 C5.63353382,64.7718236 8.22726934,65.36546 8.17250717,65.4022515 C9.58835819,65.7552513 9.84424688,66.6909495 9.80143282,67.4327463 L8.17051582,73.9667235 C8.26809205,73.9915826 8.39454288,74.0273798 8.53393749,74.0830642 C8.41744342,74.0542276 8.29298395,74.0224079 8.16454176,73.9915826 L5.87847007,83.1447191 C5.70522248,83.5742851 5.26612944,84.218634 4.27642767,83.9740201 C4.31127632,84.0247327 1.73546296,83.3406091 1.73546296,83.3406091 L0,87.3369649 L4.54924284,88.4695475 C5.39556729,88.6813474 6.22496526,88.9030909 7.04141943,89.1119078 L5.59470246,94.9130374 L9.08653758,95.7831074 L10.5193151,90.0436284 C11.4731725,90.3021635 12.399151,90.5408113 13.305216,90.7655379 L11.8774169,96.478169 L15.3732347,97.348239 L16.8199517,91.5580474 C22.7810629,92.6846638 27.2635954,92.2302387 29.1504011,86.8457483 C30.6707981,82.5103137 29.0747298,80.0094839 25.9383509,78.3787242 C28.2224313,77.8527047 29.9429591,76.3522068 30.4019656,73.2527689 L30.4019656,73.2527689 Z M22.4146542,84.4383889 C21.3343459,88.7738234 14.0250897,86.4301034 11.6553812,85.8424333 L13.5750442,78.1569806 C15.9447527,78.7476338 23.5437506,79.9170079 22.4146542,84.4383889 Z M23.4959581,73.1901238 C22.510239,77.1337783 16.4266598,75.1301314 14.4532303,74.6389147 L16.1936716,67.668411 C18.1671011,68.1596277 24.5224999,69.0764328 23.4959581,73.1901238 L23.4959581,73.1901238 Z" id="Shape"></path>
            <path d="M6.2721982,27.2471648 L7.26132428,25.5088813 L8.36194616,26.1415323 C9.6368262,26.8811254 11.0849577,27.7428917 12.7066279,28.7269741 L14.1957612,29.635023 L18.6942506,25.8620262 L26.3963401,34.6942935 L21.7927612,38.556023 L22.040694,39.035061 C23.0874293,41.0783345 24.1657833,43.3689958 25.2761616,45.9074616 L25.6102362,46.6764359 L23.7739123,47.4688465 C22.452563,44.4067654 21.179565,41.7025326 19.9556192,39.3568686 L19.2703595,38.0628866 L23.5487612,34.472023 L18.4757612,28.655023 L14.3782292,32.0944128 L12.6596704,31.0399577 C10.1387636,29.500034 8.00928313,28.2356088 6.2721982,27.2471648 Z" id="Path" transform="translate(16.334269, 36.488864) rotate(-50.000000) translate(-16.334269, -36.488864) "></path>
            <polygon id="Path" transform="translate(15.158227, 13.120675) rotate(-41.000000) translate(-15.158227, -13.120675) " points="7.55525193 15.3081293 4.69779665 4.82872373 12.3824404 9.69165708 21.9086158 5.76576667 19.2374404 15.2856571 25.6186576 21.4126256 14.419666 21.2430312 14.44995 19.2432605 20.5684404 19.3356571 16.9888237 15.8986737 18.8724404 9.17965708 12.1871859 11.9350778 7.98244041 9.27365708 9.48480596 14.7819913"></polygon>
            <polygon id="Path" points="16.4285 18.2129284 16.4285 28.2129284 14.4285 28.2129284 14.4285 18.2129284"></polygon>
        </g>
    </g>
</svg>