<?xml version="1.0" encoding="UTF-8"?>
<svg width="83px" height="75px" viewBox="0 0 83 75" version="1.1" xmlns="http://www.w3.org/2000/svg" xmlns:xlink="http://www.w3.org/1999/xlink">
    <title>logo</title>
    <g id="Page-1" stroke="none" stroke-width="1" fill="none" fill-rule="evenodd">
        <g id="logo" transform="translate(0.571500, 3.549513)">
            <path d="M30.534,46.892087 C31.171,42.634087 27.929,40.345087 23.496,38.818087 L24.934,33.050087 L21.423,32.175087 L20.023,37.791087 C19.1,37.561087 18.152,37.344087 17.21,37.129087 L18.62,31.476087 L15.111,30.601087 L13.672,36.367087 C12.908,36.193087 12.158,36.021087 11.43,35.840087 L11.434,35.822087 L6.592,34.613087 L5.658,38.363087 C5.658,38.363087 8.263,38.960087 8.208,38.997087 C9.63,39.352087 9.887,40.293087 9.844,41.039087 L8.206,47.610087 C8.304,47.635087 8.431,47.671087 8.571,47.727087 C8.454,47.698087 8.329,47.666087 8.2,47.635087 L5.904,56.840087 C5.73,57.272087 5.289,57.920087 4.295,57.674087 C4.33,57.725087 1.743,57.037087 1.743,57.037087 L0,61.056087 L4.569,62.195087 C5.419,62.408087 6.252,62.631087 7.072,62.841087 L5.619,68.675087 L9.126,69.550087 L10.565,63.778087 C11.523,64.038087 12.453,64.278087 13.363,64.504087 L11.929,70.249087 L15.44,71.124087 L16.893,65.301087 C22.88,66.434087 27.382,65.977087 29.277,60.562087 C30.804,56.202087 29.201,53.687087 26.051,52.047087 C28.345,51.518087 30.073,50.009087 30.534,46.892087 L30.534,46.892087 Z M22.512,58.141087 C21.427,62.501087 14.086,60.144087 11.706,59.553087 L13.634,51.824087 C16.014,52.418087 23.646,53.594087 22.512,58.141087 Z M23.598,46.829087 C22.608,50.795087 16.498,48.780087 14.516,48.286087 L16.264,41.276087 C18.246,41.770087 24.629,42.692087 23.598,46.829087 L23.598,46.829087 Z" id="Shape" fill="#FFFFFF" fill-rule="nonzero"></path>
            <path d="M53.0558857,35.5360815 C52.0202722,33.1337727 50.394694,30.3268124 48.179151,27.1152005 L53.0558857,23.3113268 L47.286166,16.7244128 L42.1928229,20.4197253 C39.675096,18.5114917 37.4133447,16.9872774 35.4075692,15.8470824" id="Oval" stroke="#FFFFFF" stroke-width="2"></path>
            <polyline id="Path" stroke="#FFFFFF" stroke-width="2" transform="translate(66.225375, 8.741558) rotate(9.000000) translate(-66.225375, -8.741558) " points="64.4123867 14.7185534 76.1638516 16.0179808 67.6970547 10.9065417 71.1643656 2.53800605 62.7663906 7.59013543 56.2868984 1.46513543 58.471957 9.49785027"></polyline>
            <path d="M52.6852139,17.8860339 C52.9112016,16.828864 53.873889,15.73301 55.5732759,14.5984719 C57.2726629,13.4639337 58.9766422,12.893121 60.6852139,12.8860339" id="Path-2" stroke="#FFFFFF"></path>
        </g>
    </g>
</svg>