<?xml version="1.0" encoding="UTF-8"?>
<svg width="32px" height="41px" viewBox="0 0 32 41" version="1.1" xmlns="http://www.w3.org/2000/svg" xmlns:xlink="http://www.w3.org/1999/xlink">
    <title>Shape</title>
    <g id="Page-1" stroke="none" stroke-width="1" fill="none" fill-rule="evenodd">
        <path d="M31.1055,16.4416 C31.7425,12.1836 28.5005,9.8946 24.0675,8.3676 L25.5055,2.5996 L21.9945,1.7246 L20.5945,7.3406 C19.6715,7.1106 18.7235,6.8936 17.7815,6.6786 L19.1915,1.0256 L15.6825,0.1506 L14.2435,5.9166 C13.4795,5.7426 12.7295,5.5706 12.0015,5.3896 L12.0055,5.3716 L7.1635,4.1626 L6.2295,7.9126 C6.2295,7.9126 8.8345,8.5096 8.7795,8.5466 C10.2015,8.9016 10.4585,9.8426 10.4155,10.5886 L8.7775,17.1596 C8.8755,17.1846 9.0025,17.2206 9.1425,17.2766 C9.0255,17.2476 8.9005,17.2156 8.7715,17.1846 L6.4755,26.3896 C6.3015,26.8216 5.8605,27.4696 4.8665,27.2236 C4.9015,27.2746 2.3145,26.5866 2.3145,26.5866 L0.5715,30.6056 L5.1405,31.7446 C5.9905,31.9576 6.8235,32.1806 7.6435,32.3906 L6.1905,38.2246 L9.6975,39.0996 L11.1365,33.3276 C12.0945,33.5876 13.0245,33.8276 13.9345,34.0536 L12.5005,39.7986 L16.0115,40.6736 L17.4645,34.8506 C23.4515,35.9836 27.9535,35.5266 29.8485,30.1116 C31.3755,25.7516 29.7725,23.2366 26.6225,21.5966 C28.9165,21.0676 30.6445,19.5586 31.1055,16.4416 L31.1055,16.4416 Z M23.0835,27.6906 C21.9985,32.0506 14.6575,29.6936 12.2775,29.1026 L14.2055,21.3736 C16.5855,21.9676 24.2175,23.1436 23.0835,27.6906 Z M24.1695,16.3786 C23.1795,20.3446 17.0695,18.3296 15.0875,17.8356 L16.8355,10.8256 C18.8175,11.3196 25.2005,12.2416 24.1695,16.3786 L24.1695,16.3786 Z" id="Shape" fill="#FFFFFF" fill-rule="nonzero"></path>
    </g>
</svg>