<svg xmlns="http://www.w3.org/2000/svg" width="19.96" height="17.543" viewBox="0 0 19.96 17.543"><g transform="translate(-1530.04 -118)"><g transform="translate(1530.04 118)"><path d="M93.4,105.348H91.344l-4.5-5.628a.585.585,0,0,0-.913.731l3.918,4.9H78.167l3.918-4.9a.585.585,0,0,0-.913-.731l-4.5,5.628H74.612a.585.585,0,0,0-.585.585v1.17a.585.585,0,0,0,.585.585H93.4a.585.585,0,0,0,.585-.585v-1.17a.585.585,0,0,0-.585-.585Zm0,0" transform="translate(-74.027 -99.501)" fill="#e00d2e"/></g><path d="M101.511,287.263a.584.584,0,0,0,.562.424h11.773a.584.584,0,0,0,.562-.424l2.218-7.763H99.293Zm9.127-2.6.585-3.509a.585.585,0,1,1,1.154.192l-.585,3.509a.585.585,0,0,1-1.154-.192Zm-3.263-3.413a.585.585,0,1,1,1.17,0v3.509a.585.585,0,0,1-1.17,0Zm-3.312-.577a.585.585,0,0,1,.673.481l.585,3.509a.585.585,0,1,1-1.154.192l-.585-3.509a.585.585,0,0,1,.481-.673Zm0,0" transform="translate(1432.061 -152.144)" fill="#e00d2e"/></g></svg>