<?xml version="1.0" encoding="utf-8"?>
<!-- Generator: Adobe Illustrator 25.3.1, SVG Export Plug-In . SVG Version: 6.00 Build 0)  -->
<svg version="1.1" id="Layer_1" xmlns="http://www.w3.org/2000/svg" xmlns:xlink="http://www.w3.org/1999/xlink" x="0px" y="0px"
	 viewBox="0 0 20 17.5" style="enable-background:new 0 0 20 17.5;" xml:space="preserve">
<style type="text/css">
	.st0{fill:#FFFFFF;}
</style>
<path class="st0" d="M19.4,5.8h-2.1l-4.5-5.6C12.6,0,12.2-0.1,12,0.1c-0.2,0.2-0.3,0.6-0.1,0.8l3.9,4.9H4.1L8.1,1
	c0.2-0.3,0.1-0.6-0.1-0.8C7.7-0.1,7.3,0,7.1,0.2L2.6,5.8H0.6C0.3,5.8,0,6.1,0,6.4v1.2c0,0.3,0.3,0.6,0.6,0.6h18.8
	c0.3,0,0.6-0.3,0.6-0.6V6.4C20,6.1,19.7,5.8,19.4,5.8z"/>
<path class="st0" d="M3.5,17.1c0.1,0.3,0.3,0.4,0.6,0.4h11.8c0.3,0,0.5-0.2,0.6-0.4l2.2-7.8H1.3L3.5,17.1z M12.7,14.5l0.6-3.5
	c0-0.3,0.3-0.5,0.7-0.5c0.3,0,0.5,0.3,0.5,0.7c0,0,0,0,0,0l-0.6,3.5c-0.1,0.3-0.4,0.5-0.7,0.5C12.8,15.1,12.6,14.8,12.7,14.5z
	 M9.4,11.1c0-0.3,0.3-0.6,0.6-0.6c0.3,0,0.6,0.3,0.6,0.6c0,0,0,0,0,0v3.5c0,0.3-0.3,0.6-0.6,0.6c-0.3,0-0.6-0.3-0.6-0.6V11.1z
	 M6.1,10.5c0.3-0.1,0.6,0.2,0.7,0.5l0.6,3.5c0.1,0.3-0.2,0.6-0.5,0.7c-0.3,0.1-0.6-0.2-0.7-0.5c0,0,0,0,0,0l-0.6-3.5
	C5.6,10.9,5.8,10.6,6.1,10.5L6.1,10.5z"/>
</svg>
