<svg xmlns="http://www.w3.org/2000/svg" width="24.784" height="24.784" viewBox="0 0 24.784 24.784"><path d="M12.392,2.2a38,38,0,0,1,4.957.138,6.386,6.386,0,0,1,2.341.413A4.836,4.836,0,0,1,22.03,5.094a6.386,6.386,0,0,1,.413,2.341c0,1.239.138,1.652.138,4.957a38,38,0,0,1-.138,4.957,6.386,6.386,0,0,1-.413,2.341,4.836,4.836,0,0,1-2.341,2.341,6.386,6.386,0,0,1-2.341.413c-1.239,0-1.652.138-4.957.138a38,38,0,0,1-4.957-.138,6.386,6.386,0,0,1-2.341-.413,4.836,4.836,0,0,1-2.341-2.341,6.386,6.386,0,0,1-.413-2.341c0-1.239-.138-1.652-.138-4.957a38,38,0,0,1,.138-4.957,6.386,6.386,0,0,1,.413-2.341,4.945,4.945,0,0,1,.964-1.377,2.328,2.328,0,0,1,1.377-.964,6.386,6.386,0,0,1,2.341-.413A38,38,0,0,1,12.392,2.2m0-2.2A40.683,40.683,0,0,0,7.3.138,8.5,8.5,0,0,0,4.268.688a5.39,5.39,0,0,0-2.2,1.377,5.39,5.39,0,0,0-1.377,2.2A6.274,6.274,0,0,0,.138,7.3,40.683,40.683,0,0,0,0,12.392a40.683,40.683,0,0,0,.138,5.094,8.5,8.5,0,0,0,.551,3.029,5.39,5.39,0,0,0,1.377,2.2,5.39,5.39,0,0,0,2.2,1.377,8.5,8.5,0,0,0,3.029.551,40.683,40.683,0,0,0,5.094.138,40.683,40.683,0,0,0,5.094-.138,8.5,8.5,0,0,0,3.029-.551,5.777,5.777,0,0,0,3.58-3.58,8.5,8.5,0,0,0,.551-3.029c0-1.377.138-1.79.138-5.094A40.683,40.683,0,0,0,24.646,7.3,8.5,8.5,0,0,0,24.1,4.268a5.39,5.39,0,0,0-1.377-2.2,5.39,5.39,0,0,0-2.2-1.377A8.5,8.5,0,0,0,17.486.138,40.683,40.683,0,0,0,12.392,0m0,6.058a6.232,6.232,0,0,0-6.334,6.334,6.334,6.334,0,1,0,6.334-6.334m0,10.464a4.057,4.057,0,0,1-4.131-4.131,4.057,4.057,0,0,1,4.131-4.131,4.057,4.057,0,0,1,4.131,4.131,4.057,4.057,0,0,1-4.131,4.131M19,4.268a1.515,1.515,0,1,0,1.515,1.515A1.528,1.528,0,0,0,19,4.268" fill="#fff" fill-rule="evenodd"/></svg>