<svg xmlns="http://www.w3.org/2000/svg" xmlns:xlink="http://www.w3.org/1999/xlink" width="23.75" height="23.2" viewBox="0 0 23.75 23.2"><defs><clipPath id="a"><path d="M0,15.312H23.75v-23.2H0Z" transform="translate(0 7.888)" fill="none"/></clipPath></defs><g transform="translate(0 0)" clip-path="url(#a)"><path d="M5.391,15.312H.3V-.341H5.391ZM2.847-2.479H2.812A2.662,2.662,0,0,1,0-5.182,2.683,2.683,0,0,1,2.879-7.888,2.671,2.671,0,0,1,5.726-5.182a2.682,2.682,0,0,1-2.879,2.7m20.9,17.791H18.659V6.935c0-2.1-.735-3.538-2.579-3.538a2.793,2.793,0,0,0-2.612,1.9A3.624,3.624,0,0,0,13.3,6.568v8.744H8.212s.065-14.185,0-15.653H13.3V1.874A5.033,5.033,0,0,1,17.891-.712c3.347,0,5.859,2.238,5.859,7.047Z" transform="translate(0 7.888)" fill="#fff"/></g></svg>