<svg xmlns="http://www.w3.org/2000/svg" width="125" height="125" viewBox="0 0 125 125"><path d="M-3980.5,109a62.96,62.96,0,0,1-12.6-1.27,62.186,62.186,0,0,1-11.732-3.642,62.5,62.5,0,0,1-10.616-5.762,62.961,62.961,0,0,1-9.25-7.632,62.955,62.955,0,0,1-7.632-9.25,62.5,62.5,0,0,1-5.762-10.617A62.191,62.191,0,0,1-4041.73,59.1,62.949,62.949,0,0,1-4043,46.5a62.949,62.949,0,0,1,1.27-12.6,62.191,62.191,0,0,1,3.642-11.732,62.505,62.505,0,0,1,5.762-10.617,62.954,62.954,0,0,1,7.632-9.25,62.961,62.961,0,0,1,9.25-7.632,62.5,62.5,0,0,1,10.616-5.762A62.186,62.186,0,0,1-3993.1-14.73,62.96,62.96,0,0,1-3980.5-16a62.962,62.962,0,0,1,12.6,1.27,62.19,62.19,0,0,1,11.732,3.642,62.5,62.5,0,0,1,10.616,5.762,62.961,62.961,0,0,1,9.25,7.632,62.962,62.962,0,0,1,7.632,9.25,62.489,62.489,0,0,1,5.763,10.617A62.191,62.191,0,0,1-3919.27,33.9,62.966,62.966,0,0,1-3918,46.5a62.966,62.966,0,0,1-1.27,12.6,62.191,62.191,0,0,1-3.642,11.732,62.489,62.489,0,0,1-5.763,10.617,62.962,62.962,0,0,1-7.632,9.25,62.961,62.961,0,0,1-9.25,7.632,62.5,62.5,0,0,1-10.616,5.762,62.191,62.191,0,0,1-11.732,3.642A62.961,62.961,0,0,1-3980.5,109Zm-14.825-87.79V71.791l44.186-25.291-44.186-25.29Z" transform="translate(4043 16)" fill="#fff"/></svg>