<svg xmlns="http://www.w3.org/2000/svg" width="83.4" height="67.8" viewBox="0 0 83.4 67.8">
  <path id="Path_771" data-name="Path 771" d="M51.6,42.9A50.286,50.286,0,0,0,38.7,55.65Q33,63.6,32.4,70.8l3.9-.3a13.516,13.516,0,0,1,10.35,4.35,16.357,16.357,0,0,1-.6,22.2A15.325,15.325,0,0,1,34.8,101.7a16.915,16.915,0,0,1-13.2-6.15Q16.2,89.4,16.2,78.9a50.668,50.668,0,0,1,6.75-25.2A60.9,60.9,0,0,1,40.5,33.9Zm48,0A48.279,48.279,0,0,0,86.85,55.65Q81.3,63.6,80.4,70.8l3.9-.3a13.994,13.994,0,0,1,10.5,4.35,15.959,15.959,0,0,1-.6,22.2,15.826,15.826,0,0,1-11.4,4.65,16.915,16.915,0,0,1-13.2-6.15Q64.2,89.4,64.2,78.9a50.668,50.668,0,0,1,6.75-25.2A60.9,60.9,0,0,1,88.5,33.9Z" transform="translate(-16.2 -33.9)" fill="#fff"/>
</svg>
