<svg xmlns="http://www.w3.org/2000/svg" width="24.784" height="20.102" viewBox="0 0 24.784 20.102"><path d="M45.848,22.1A14.329,14.329,0,0,0,60.305,7.645V6.957a11.192,11.192,0,0,0,2.478-2.616,11.43,11.43,0,0,1-2.891.826,5.357,5.357,0,0,0,2.2-2.754,12.629,12.629,0,0,1-3.167,1.239A4.917,4.917,0,0,0,55.211,2a5.173,5.173,0,0,0-5.094,5.094,2.684,2.684,0,0,0,.138,1.1A14.235,14.235,0,0,1,39.79,2.826,5.273,5.273,0,0,0,39.1,5.442a5.471,5.471,0,0,0,2.2,4.268,4.642,4.642,0,0,1-2.341-.688h0a5.032,5.032,0,0,0,4.131,4.957,4.245,4.245,0,0,1-1.377.138,2.343,2.343,0,0,1-.964-.138,5.216,5.216,0,0,0,4.819,3.58,10.4,10.4,0,0,1-6.334,2.2A3.812,3.812,0,0,1,38,19.624,13,13,0,0,0,45.848,22.1" transform="translate(-38 -2)" fill="#fff" fill-rule="evenodd"/></svg>