<svg xmlns="http://www.w3.org/2000/svg" width="36.043" height="25.235" viewBox="0 0 36.043 25.235"><g transform="translate(0)"><path d="M-143.225,196.471a4.515,4.515,0,0,0-3.177-3.177c-2.82-.772-14.1-.772-14.1-.772s-11.282,0-14.1.742a4.608,4.608,0,0,0-3.177,3.206,47.587,47.587,0,0,0-.742,8.669s0,5.878.742,8.669a4.516,4.516,0,0,0,3.177,3.177c2.85.772,14.1.772,14.1.772s11.282,0,14.1-.742a4.516,4.516,0,0,0,3.177-3.177,47.591,47.591,0,0,0,.742-8.669s.03-5.878-.743-8.7ZM-164.1,210.543V199.736l9.382,5.4Zm0,0" transform="translate(178.525 -192.522)" fill="#fff"/></g></svg>